<svg xmlns="http://www.w3.org/2000/svg" preserveAspectRatio="none" style="display:block" viewBox="380 320 1315 1405">
    <path fill="#4f46e5"
          d="M1542.5 529.8c11.9 19.8 21 41.9 29.8 63a688 688 0 0 1 50.5 189c3.8 33.3 3.4 66.4 6.3 99.6a584 584 0 0 0-31.8-45.4c-3 5.7-9.7 48-12.4 58.5q-10.5 40.5-25.4 79.7c-4.2 12-9.3 25.4-15.8 36.3-6-41.6-10.4-65.1-21.8-106.1-29 33.4-55.5 60.3-80.4 97.8-6.6 11.4-30.3 52.6-30.5 63.5 32.8-15.7 64.3-33.7 97.8-48.5-20 35.5-40.2 92.6-57.4 132.5a9720 9720 0 0 1-40.2 91.2c-8.2 18.5-19.4 43-26 61.8 24.2-14.2 46.1-31.5 68.2-48.7-17.7 44.5-37.2 88.8-55 133.3-9.6 24.2-18.8 48.6-28.9 72.5q-21.3 50-45.4 98.5c-32.1 65.5-58.1 114.9-103.6 173.4 30.3-83.3 61.5-175.4 77-262.8l1.7-9.3q4.3-27 7.8-54c-17 7.4-33.4 18.4-52 26.1 2.3-7.7 8.5-21.2 11.7-29.1q12-29.7 22.6-59.8 8.8-25.4 16.4-51.1c12.8-44.1 6.1-32 36.9-62.3 4-4 25.2-56.3 32.3-68.9-4.2 23.5-11.5 47.8-15 70.8 5.3-10.4 11.6-25.7 16.5-36.7 13.3-29.6 25.6-57.7 40.6-86.6-39.4 25.2-62.3 39.5-107 53.4 9.6-18.4 22-37.8 32.5-56q22.7-40 44-80.8c-10.4 7.4-20.1 19-29.4 27.9-49.8 47-82.8 109.3-130.8 157.6-3.6 4.8-10.3 11.9-14.5 16.6 3.7-10.5 10-24.2 14.4-34.8q12.5-30 24.5-60.5c14-35.7 25.5-74.4 41.7-109 11-23.4 29.8-49.5 45.2-70.1a467 467 0 0 1-6.8 43.5l3.7-1.7c42-20 70.4-55 85.5-98.3 5.4 10 9 18.4 13.4 28.9 44.2-52 61.7-147.5 55.4-214.8 16.8 25.5 31.3 60 43 88 5.8-18.2 12.1-32.8 16.2-52.1 15.3-72.8 11-144.3-5.5-216"/>
    <path fill="#4f46e5"
          d="M1411 1065.7c32.8-15.7 64.3-33.7 97.8-48.5-20 35.5-40.2 92.6-57.4 132.5a9720 9720 0 0 1-40.2 91.2c-8.2 18.5-19.4 43-26 61.8 24.2-14.2 46.1-31.5 68.2-48.7-17.7 44.5-37.2 88.8-55 133.3-9.6 24.2-18.8 48.6-28.9 72.5q-21.3 50-45.4 98.5c-32.1 65.5-58.1 114.9-103.6 173.4 30.3-83.3 61.5-175.4 77-262.8 9.3-1 10-2.2 18-7-2.8 20.7-31.3 126-30.3 132.8 2.5-3.5 7.9-16.7 9.8-21.2l18.6-41.6c19.8-44 41-88 59.6-132.5 12.3-29.2 23.8-60 35.6-89.6-21.8 15.3-45.2 31.8-69.7 42.2 12.6-32.3 30.1-63.2 42.4-95.7 3.7-9.6 6.7-20.5 11-29.8a3586 3586 0 0 0 72-168c-20.2 9-49.4 21.9-70.5 27.7a157 157 0 0 1 17-20.5m131.5-535.9c11.9 19.8 21 41.9 29.8 63a688 688 0 0 1 50.5 189c3.8 33.3 3.4 66.4 6.3 99.6a584 584 0 0 0-31.8-45.4c-.5-3.5-3.3-7-7-6 2 3 4.1 5.1 3.7 7.7-5.2-1-8-.3-11.7-3l.7-3c3.7-16.4 1-29.7 3.2-43.6 6.4 9.4 16 21 23.1 30.9a646 646 0 0 0-21.8-126.3c-3.6-14.2-9-29.9-13.7-44 .7 64.2-4 145.5-45.8 197.2a413 413 0 0 0-25.6-71.4c-2.6 48.5-25.2 102.6-50.7 143.6-11.1 18-24.6 35.9-35.5 54 .8-10 .6-18.6 1.2-28.3-31.1 43.8-61 62.6-109 83-9.4 16.5-11.6 34.4-18.5 51.8-11.8 29.7-25.7 59-39.3 87.8-4 8.5-24.5 37.6-24.3 43.7-3.6 4.8-10.3 11.9-14.5 16.6 3.7-10.5 10-24.2 14.4-34.8q12.5-30 24.5-60.5c14-35.7 25.5-74.4 41.7-109 11-23.4 29.8-49.5 45.2-70.1a467 467 0 0 1-6.8 43.5l3.7-1.7c42-20 70.4-55 85.5-98.3 5.4 10 9 18.4 13.4 28.9 44.2-52 61.7-147.5 55.4-214.8 16.8 25.5 31.3 60 43 88 5.8-18.2 12.1-32.8 16.2-52.1 15.3-72.8 11-144.3-5.5-216"/>
    <path fill="#4f46e5"
          d="M1549.8 910.6a843 843 0 0 0 36.2-161c2.2-18.5-1-39.2 1.5-56.9 10.6 40 19.5 84.8 21.8 126.3-7.1-10-16.7-21.5-23-31-2.3 14 .4 27.3-3.3 43.7l-.7 3c3.6 2.7 6.5 2 11.7 3 .4-2.6-1.8-4.7-3.6-7.6 3.6-1 6.4 2.4 7 5.9-3 5.7-9.8 48-12.5 58.5q-10.5 40.5-25.4 79.7c-4.2 12-9.3 25.4-15.8 36.3-6-41.6-10.4-65.1-21.8-106.1-29 33.4-55.5 60.3-80.4 97.8-5.4.7-31.4 12.2-39.8 15 20.9-27.3 42.4-50 64.3-76.3 22.3-26.7 43-54.2 66-80.5 5.4 15.6 11.7 35.2 17.8 50.2"/>
    <path fill="#4f46e5"
          d="M1559.6 974.2c-9.7-13.8 7-65.8 10.5-82.1q6.8-30 11-60.7c.8-5.4 2.7-42.7 3.8-44.5l1.3 1.2c-2.2 13.9.5 27.2-3.2 43.6l-.7 3c3.6 2.7 6.5 2 11.7 3 .4-2.6-1.8-4.7-3.6-7.6 3.6-1 6.4 2.4 7 5.9-3 5.7-9.8 48-12.5 58.5q-10.5 40.5-25.4 79.7m-260.3 485.4c5.3-1.2 10.9-3 16.1-2.4l.8 1-.6 3.6c-8 5-8.7 6.1-18 7zM508.4 529.8l-.2 1.3c-1.7 15.3-6 31-7.8 46.6-9.2 79-9 145.4 20 220.2a632 632 0 0 1 42.6-88.8c-4.4 73.7 10.2 156.1 56 215.7 4-9.4 8-19.8 13.1-28.5 17 46.8 45 77.7 89.4 100.3-2.8-15-4.9-28.4-7-43.5 50.2 62.3 54.5 92.6 81.8 164.1q21 55.2 44.7 109.4c-3.7-4-12.8-13.5-15.7-17.5-56.7-62.5-95.7-130.7-160-185.8q21 41.2 44.3 81.3c10.4 17.9 24.1 39.3 33.2 57.6a414 414 0 0 1-93-45.7c-4.3-2.7-9.3-5.7-13.8-8.2 20.6 41 37.3 81 56.6 121.5-4.6-20.5-11.8-49.4-14.5-69.7 7.2 13.6 12.8 27 18.7 41.2 3.7 9.2 6.8 17.6 11.7 26.2 5.6 9.6 22.8 19.5 26.7 28 3.3 7.5 7.2 22 9.6 30.1q6 21.4 13.2 42.4c13.2 39.6 25 66.8 40.4 104.7q-26.5-13.3-52.8-27.3 2.4 21.2 6 42.2c1 6.6 4.3 22.7 4.7 28.8 1.6 3 9.7 42.6 11.3 49.1q8.7 35.2 19 69.9c14 48.4 28.9 88.8 45.7 135.7-37.2-46.3-66.5-99.2-93-152q-26.2-51.5-49.6-104.1c-13-30-24-59.9-36.2-90.1q-26.7-66-55-131.1c24.5 16.8 42.5 32.3 69 48.2-20.5-51.3-45.7-103.5-67.5-155.3a2825 2825 0 0 1-24-58.4c-10.9-27.2-16.7-45.6-32-71 32.5 13.4 65.7 33 97.8 48.2l.4-.7c-.6-9.5-25.6-52.7-31.8-62.7-25-37.6-50-64.6-79.8-98a750 750 0 0 0-22.4 107.2 625 625 0 0 1-42.5-124.8c-2.8-12.8-6.5-39.7-10-50.5a294 294 0 0 0-32.3 45.4c1.3-34.3 2.6-70.3 6.4-104.3 9.3-82.1 40.5-173.9 78.6-247.3"/>
    <path fill="#4f46e5"
          d="m508.4 529.8-.2 1.3c-1.7 15.3-6 31-7.8 46.6-9.2 79-9 145.4 20 220.2a632 632 0 0 1 42.6-88.8c-4.4 73.7 10.2 156.1 56 215.7 4-9.4 8-19.8 13.1-28.5 17 46.8 45 77.7 89.4 100.3-2.8-15-4.9-28.4-7-43.5 50.2 62.3 54.5 92.6 81.8 164.1q21 55.2 44.7 109.4c-3.7-4-12.8-13.5-15.7-17.5l-.2-2c-.7-5.2-7.3-13.2-10-18.3-24.5-44.2-48.5-92.7-62.5-141.3-5.4-19-9.8-21.7-27.8-28.8-39.3-15.6-64.9-43.3-90.5-75.5l2.4 29.4C603.2 921.5 571.2 877 557 816c-3.2-13.6-5-26.8-7.4-40.5-11.4 25-17 43.3-24.6 69.5-9.2-11-22.6-33.5-27-47-14.4-43.4-24.2-106.5-18.8-151.9-5.6 14.1-10.3 31-14.6 45.6a750 750 0 0 0-22.3 127.5c8.6-11.2 17.6-23.4 26.7-34.1 0 14.2.3 30 2.5 44.1-8.3 5.2-7.2 3.6-15.8 6.8a294 294 0 0 0-32.2 45.4c1.3-34.3 2.6-70.3 6.4-104.3 9.3-82.1 40.5-173.9 78.6-247.3m35.5 487.6c32.5 13.3 65.7 33 97.8 48.1a136 136 0 0 1 18.2 21.7c-24.4-8.7-46.9-18.6-70.8-27.8 20.4 55.9 45.2 110.2 69.8 164.3 4.9 10.7 8.4 22.4 12.7 33.4 12.4 31.9 29 62.5 42.4 94a423 423 0 0 1-55.8-32.1c-4.2-3-9-6.2-13.5-8.7 28.5 71.8 56.4 142.3 90 212 12.6 26 23.2 53.6 36.1 79.3-3.8-14.1-32.3-120.4-29-127 2.8 10.9 7.8 51.8 15.4 57l-.6-3.5 1.5-1.6c4-.1 3.2.3 7.4 3l.9-1c-2.3-13.2-10.4-39.8-11-51.3l.8-.8c1.6 3 9.7 42.6 11.3 49.1q8.7 35.2 19 69.9c14 48.4 28.9 88.8 45.7 135.7-37.2-46.3-66.5-99.2-93-152q-26.2-51.5-49.6-104.1c-13-30-24-59.9-36.2-90.1q-26.7-66-55-131.1c24.5 16.8 42.5 32.3 69 48.2-20.5-51.3-45.7-103.5-67.5-155.3a2825 2825 0 0 1-24-58.4c-10.9-27.2-16.7-45.6-32-71"/>
    <path fill="#4f46e5"
          d="M464.5 691.7c2.8 18.7-.3 43.2 2.3 63.7 7 53.2 20.2 103.9 35.3 155.2 5.8-16 12.6-35 19-50.7q15.7 18.1 30.4 37c32.2 41.5 67.2 80.6 100.5 121.1-7.2-2.7-37.6-17-41.6-16-25-37.5-50-64.5-79.8-97.9a750 750 0 0 0-22.4 107.2 625 625 0 0 1-42.5-124.8c-2.8-12.8-6.5-39.7-10-50.5 8.5-3.2 7.4-1.6 15.7-6.8a309 309 0 0 1-2.5-44.1c-9 10.7-18.1 22.9-26.7 34a750 750 0 0 1 22.3-127.4"/>
    <path fill="#4f46e5"
          d="M471.4 829.2c3 24 7.5 47.2 12.2 70.9 3.6 18.6 19 57.7 9 74.8a625 625 0 0 1-26.9-88.4c-2.8-12.8-6.5-39.7-10-50.5 8.5-3.2 7.4-1.6 15.7-6.8m785-496.5c17.6 10.8 34 25 49.8 38.2 93.2 78.3 155.8 178.9 200.7 291-9.7-7.5-50.3-43.2-59.3-44.8l-1.7 2q4.8 54.8 1.4 109.7c-1.6 27-5 54.8-6.4 81.6 0 7.2-1.7 23.8-2.2 31.8-9-10.8-20-27.4-29.3-39.4l-8 13.1a739 739 0 0 1-69.7 99.7c-10.3 12.7-20.2 26-31.6 38 4.1-45.1 50.2-97.8 75-134.7 11-16.5 25-45.3 36.3-59.5q4.1 6.5 7.9 13.2l-4.2-16.4c-2.8-7.5-5.6-15.6-8.7-22.9a538 538 0 0 1-64 112.8c-18.2 24.5-41.2 48.3-60 73.4-26.6 35.6-38.6 53-39.8 98.9-31.4 15-49.4 40.3-74.7 65.1 1.6-24.9 2.5-50.1 8.8-74.4 11 .5 20.5 1.2 31.4 2.2 8.1-21 24.5-61 22.3-82.3-1.9-17.8-6.5-41-8.8-59.6-11 3-17.8 6.2-27.7 9.4-6.4 3.9-14.1 8-20.7 11.7 13.7-40.6 20.2-36.9 49.3-65.6 41.8-41.2 53.6-83.3 65.3-138.5 10.8 44.8 15.4 81.4 9 127.6a243 243 0 0 0 53-70.1c68-138-8-301.3-93.4-411.2"/>
    <path fill="#4f46e5"
          d="M1256.4 332.7c17.6 10.8 34 25 49.8 38.2 93.2 78.3 155.8 178.9 200.7 291-9.7-7.5-50.3-43.2-59.3-44.8l-1.7 2c-6.4-3.3-26.7-37.7-32.6-46 15.9 8.9 33.5 21.7 49.1 31.8-23.4-51.4-59.2-104.4-94.8-148-8.1-10-19-23.3-28.6-31.4 11.3 25 19 39.2 28.8 66 27.9 75.9 35.7 165.6 8.3 242.6-16.2 45.4-64.3 101-105 126.9 8.8-30.1 15.5-69 14.6-100.4-19.4 44.3-32 61.5-68.1 95.2-4.7 4.4-21.4 19.1-23.7 23-6.4 3.9-14.1 8-20.7 11.7 13.7-40.6 20.2-36.9 49.3-65.6 41.8-41.2 53.6-83.3 65.3-138.5 10.8 44.8 15.4 81.4 9 127.6a243 243 0 0 0 53-70.1c68-138-8-301.3-93.4-411.2"/>
    <path fill="#4f46e5"
          d="M1417.1 652.3c3.6 11.9 6 27.7 7.8 40a1149 1149 0 0 1 8.3 66.7c.8 7.5 3.6 49.2 6.6 52.2l1-.8c0 7.2-1.6 23.8-2.1 31.8-9-10.8-20-27.4-29.3-39.4l-8 13.1a739 739 0 0 1-69.7 99.7c-10.3 12.7-20.2 26-31.6 38 4.1-45.1 50.2-97.8 75-134.7 11-16.5 25-45.3 36.3-59.5q4.1 6.5 7.9 13.2l-4.2-16.4c2-8.5 1.4-20 1.9-28.7 1.4-24.5-.6-51 .1-75.2m-872.2 9c30.5-74.5 59.6-132.7 110.4-195.7 30-37.2 54.2-66.3 92.5-96.4 14.8-11.7 32-27.1 48-36.9-71.7 94-132.5 210-117.5 332.4 6.8 56 34.1 111.5 76.6 149.2-6.6-53-1.8-77.2 8-128 4.8 19.7 8.2 40 15.1 58.9A245 245 0 0 0 850.5 845c21.1 17.5 19.1 20.5 28 45.8-5.8-3.3-18.3-10.2-23.3-13.7-7.7-2.2-16.6-5.3-24.4-7.8-2.5 18.2-7.3 41.3-9 58.8-2 23 13.8 61.2 22.1 83.2 10.7-.8 21.3-1.8 32-1.8 5.5 17.2 7.7 54.2 8.4 73.2-25.5-24.7-43.5-49.2-75-64.2-.5-17-.6-26.3-5.9-42.9-7.7-24.5-21.8-40.7-37.3-60.4-7.8-9.8-16.3-21.6-24.3-31-14.8-17.4-28.9-33-41.7-52a681 681 0 0 1-40.5-68c-5-9.9-9-20.2-14-29.8l-.5-1-8.3 23.8-3.5 15.6q4-7.2 7.7-14.6c14.8 25 29 50.5 45.8 74.1 23.3 32.5 60.2 81 65.2 121.1-27.7-29.7-54-67-77.8-100-11-15.2-21.1-34.2-30.9-50.5q-15 19.2-28.8 39.5c-.8-8.2-2.6-22-2.4-29.8-5.3-41-8.1-91.5-8.7-133-.3-19.5 2.4-42.4 2.7-62.6-7.9-.6-52.3 37.8-61.2 44.3"/>
    <path fill="#4f46e5"
          d="M544.9 661.3c30.5-74.5 59.6-132.7 110.4-195.7 30-37.2 54.2-66.3 92.5-96.4 14.8-11.7 32-27.1 48-36.9-71.7 94-132.5 210-117.5 332.4 6.8 56 34.1 111.5 76.6 149.2-6.6-53-1.8-77.2 8-128 4.8 19.7 8.2 40 15.1 58.9A245 245 0 0 0 850.5 845c21.1 17.5 19.1 20.5 28 45.8-5.8-3.3-18.3-10.2-23.3-13.7-4.2-6-22.3-22.7-28.2-28.5a237 237 0 0 1-61-87.6c-.9 32.8 6.3 68 14.1 99.6-43.7-27.8-92.2-86.3-107.5-136-31.1-100.9-7.4-208.2 40.2-299.6-7.4 6-21 22.4-27.5 30.3-35.8 43.1-72.8 98.1-95.8 149.3 16.3-9.9 33.7-22.6 50.3-33-10.8 14.6-20.3 31.4-31.5 45.8l-2.2-.4c-7.9-.6-52.3 37.8-61.2 44.3"/>
    <path fill="#4f46e5"
          d="M612 812.6c3-7.7 5.7-42.7 6.8-52.2 3.8-31.6 7-78.8 15.6-109-.3 18.4-1.5 91.5 2.4 105.8l-3.5 15.6q4-7.2 7.7-14.6c14.8 25 29 50.5 45.8 74.1 23.3 32.5 60.2 81 65.2 121.1-27.7-29.7-54-67-77.8-100-11-15.2-21.1-34.2-30.9-50.5q-15 19.2-28.8 39.5c-.8-8.2-2.6-22-2.4-29.8m1064.1 66.1a1138 1138 0 0 1-41.6 272q-10.5 34.1-22.4 67.7c-3.5 10-10.7 27.9-13.1 37.2 19.4-10 37.2-23.1 54.6-36.2-18 45-47.4 94.6-71.5 137-8 14-23 40.2-32.1 52.6a347 347 0 0 1-14.7 23.3c-22.3 33-47.5 65.8-72.5 97 14.5-43.6 46.7-144 45.9-186.3-6.7-10.3-13.1-13.9-23-21 17-33.8 21.3-41.5 24.4-78.5a201 201 0 0 0 45.3-62c14.4-30.8 27-62.6 42-93l-18 17.4c-5 8-13.8 17.9-19.9 25.6-26.3 33.6-67.2 73.7-108.8 86.5 3.2-6.6 17.3-37.3 20.7-42.4 4-9.2 27.2-66 30.3-68.5 85.5-67.7 133.5-124.6 174.4-228.4"/>
    <path fill="#4f46e5"
          d="M1676.2 878.7a1138 1138 0 0 1-41.6 272q-10.5 34.1-22.4 67.7c-3.5 10-10.7 27.9-13.1 37.2 19.4-10 37.2-23.1 54.6-36.2-18 45-47.4 94.6-71.5 137-8 14-23 40.2-32.1 52.6l-.6-.2c-3.5.3-16.7 24.2-20.2 28.4l-1.1-.1-2.4-4.1c2.2-6.6 9.3-14 11.5-19.3 8-19.8 19.2-37.2 28.8-56q21.6-43.2 44.8-85.6c-16.2 8.2-31 18.1-47.1 26.6 3.2-12 9.1-25.8 13.7-37.4 29.8-76 55.3-154.3 67.6-235.2 2.8-18.7 7-38.3 8-57.2a346 346 0 0 1-63.2 80.3c-11.6 10.8-21.7 23.9-33.8 34.7-13.2 11.8-28.3 21.4-40.1 34.4-5.3 6.5-18 35.6-21.7 44.5-4.7 3.2-17.6 11.9-22.8 12.8 4-9.2 27.2-66 30.3-68.5 85.5-67.7 133.5-124.6 174.4-228.4"/>
    <path fill="#4f46e5"
          d="M1494.3 1162.8c20.2-9.7 44.6-28.6 63.1-41.2 7-4.8 15-12 22.2-15.7-5 8-14 17.9-20 25.6-26.3 33.6-67.2 73.7-108.8 86.5 3.2-6.6 17.3-37.3 20.7-42.4 5.2-1 18.1-9.6 22.8-12.8m-1041.1 92.8c-1.6-5.9-4-12-6.2-17.6-44.7-115-67-235.8-71.8-359 6.1 12.4 11.3 27 17.3 39.8a436 436 0 0 0 51 85c20 24.8 47.5 51.7 70.9 73.7 7 6.7 33.7 24.1 36.8 29.8 10 18.4 21.1 47.8 29.3 67.5 5 8.4 16.1 33.5 21 43.6-45.6-17.7-74.4-45.8-104.6-83.2-6.4-8-14.3-17.5-19.9-26q-11.3-10.4-22-21.5c14.3 32.7 28.3 65.7 43.6 97.9 11.6 24.4 25.3 40 44.2 58.8 1.4 33.8 8.6 48.3 23.9 78.2-7.8 4.7-19.8 11.4-22.3 20.8-7 26.6 35.5 152.8 47.2 186.8-15.9-20.2-32.3-40.6-47.4-61.2-3-4.8-6.9-9.6-10.2-14.3a1502 1502 0 0 1-136.3-236c20.2 13.5 34.1 23.8 55.5 36.9"/>
    <path fill="#4f46e5"
          d="M453.2 1255.6c-1.6-5.9-4-12-6.2-17.6-44.7-115-67-235.8-71.8-359 6.1 12.4 11.3 27 17.3 39.8a436 436 0 0 0 51 85c20 24.8 47.5 51.7 70.9 73.7 7 6.7 33.7 24.1 36.8 29.8 10 18.4 21.1 47.8 29.3 67.5l-.8.4c-4.8-1.6-16.7-9.1-20.9-12.4-5.5-11.3-15.9-36.4-22.4-45-10.8-11.5-24.8-20.7-36.8-31-13.6-11.8-24.7-25.7-37.3-37.8a355 355 0 0 1-64-81.9c11.4 85 26.6 160.7 56.4 241.4 11.2 30 24.6 60.3 35.2 90-16.4-8.2-32.3-19-48.5-27.3 17.8 31.8 33.6 64.3 51 96.2 19.2 35.2 39.7 66.3 56.1 103.4-2.7-.7-1.8-.3-4.3-1.8-3-4.8-6.9-9.6-10.2-14.3a1502 1502 0 0 1-136.3-236c20.2 13.5 34.1 23.8 55.5 36.9"/>
    <path fill="#4f46e5"
          d="M477 1109.3c7.2 3.4 15.2 10.1 22 14.8 17.6 12 40.6 30 59.8 38.7 4.2 3.3 16.1 10.8 21 12.4l.7-.4c5 8.4 16.1 33.5 21 43.6-45.6-17.7-74.4-45.8-104.6-83.2-6.4-8-14.3-17.5-19.9-26m547.8-150.9c17.3-12 35-21.7 52.3-33.1a419 419 0 0 0 49.4-38.5c.1 13-.2 36.3 1.1 48.5 4.2.5 11.3 1.4 15.3.9 20.7-2.8 43.6-22.4 60.1-34.8 3.7 34.6 2.5 47.3-7.8 79.9-20.2-1.2-31.7-1.6-50.1 8.6-4.6 2.6-11.7 8.3-16 9.7l-5.2-2c-6.5-4.8-11.7-9.2-17.8-14.5.8 26.5 4.2 35.3 13.9 60.2-11 7.6-90.6 61.5-95.3 62.5-25.2-20.3-64.2-42.7-92.1-62.6 9.5-24.1 13.4-34.3 13.5-60.4l-17.2 14.5c-1.8 1-5.5 3.5-7.2 2.3-23.3-17.1-34.4-20-64-18.2-11.8-34.8-11.4-43.2-9.5-80.2 20.3 15.6 46.2 38.4 72.5 35l4-.7c.2-15.4.1-32.6 1-48a387 387 0 0 0 52.6 40.7c15.4 10 31.9 19.2 46.5 30.2"/>
    <path fill="#4f46e5"
          d="M1025.6 1025.7a327 327 0 0 1 3.3-26.2c1.3-7.6 2.4-16.6 6.4-23.2 8.7-14.4 63.1-46 80-58.2.2 10.5-2.6 26.1 10.2 29 24.7 5.6 45.4-7.4 66.3-18.4.6 12.8-.5 28.7-3.4 41.2-25.3.3-48.2 6.4-64.5 27.5-6.5-4.7-11.7-9.1-17.8-14.4.8 26.5 4.2 35.3 13.9 60.2-11 7.6-90.6 61.5-95.3 62.5 1-22.1-1.6-60.3 1-80"/>
    <path fill="#4f46e5"
          d="M1127 1077.7c0 7.3-.7 40.2 2.8 43.7 25.1 10 54.6-19.2 74.2-31.3 1.5 36.8 2.3 44.1-9.3 79.7a78 78 0 0 0-63 16.9c-1.6 1.2-5.7-.9-7.4-1.7-7-5-11.5-10-17.7-14.7.6 27.1 3.7 34.2 13.7 59.7-10.8 7.5-90 60.9-95.5 61.5-29.9-20.8-62.8-40-92-61.3 9.2-23.8 13.2-34 13.3-59.4-5.3 4.2-11 9.2-16.2 13.5-1.8 1-5.8 4-7.6 2.8-26.4-16.8-33-19.1-64.6-17.9-11-32.5-12.2-43.8-9.7-79.1 7 5 60.8 46.8 74.7 30.8 2.6-3 2.3-35.2 2.4-43.3 16 13.8 29.2 24.2 47 35.8 17 11 37 22 53 34.3 17-12.2 35.3-22.2 53-33.4 17.4-11 33.1-23.4 48.9-36.6"/>
    <path fill="#4f46e5"
          d="M1025.7 1215.7c1-10.2 4.6-46.5 10.8-52 22.2-20.2 54.5-39.4 79.6-56.1-.4 23.1-1 29.6 26.6 28.5 17.4-.6 34-11 49.1-19 .1 15.8-.7 25.6-3.2 41-27.6-.2-45.5 5.7-64.3 27-7-5-11.5-10-17.7-14.8.6 27.1 3.7 34.2 13.7 59.7-10.8 7.5-90 60.9-95.5 61.5 1.5-20-1.9-58.3.9-75.8"/>
    <path fill="#4f46e5"
          d="M1097.6 1286.1c9.7-7.7 20-15.5 29.4-23.5 1.1 14.3 1 28 2 42 3.6.5 11.7 1.5 15 1.2 22.6-2.5 42.1-21.3 60-33 1.8 34.6 1 44.4-9.5 77.3-20.7-.5-37.3.2-55.1 12.3-7.4 5-6.7 8.3-15.4 4.8-6.5-5-12-9.7-18-15 .6 25.9 4.3 35.4 14.3 59-11.3 7.3-89.9 59.6-95.4 60q-45.5-31.2-92-60.6c10-24.1 13.3-32.2 13.4-58.1-5.5 4.7-10.8 9.4-16.8 13.4-2 1.3-5.7 3.8-7.7 2.4-23.4-16.5-34.3-19.3-63.7-18.2-11-36.5-10.5-39.4-9.9-77.8 9 7 56.3 44.1 73 32.7 4.8-3.3 3.8-33.4 4-42.7 35.5 31.6 64 43 100.3 70 24-15.9 48.8-30.1 72-46.2"/>
    <path fill="#4f46e5"
          d="M1097.6 1286.1c9.7-7.7 20-15.5 29.4-23.5 1.1 14.3 1 28 2 42 3.6.5 11.7 1.5 15 1.2 22.6-2.5 42.1-21.3 60-33 1.8 34.6 1 44.4-9.5 77.3-20.7-.5-37.3.2-55.1 12.3-7.4 5-6.7 8.3-15.4 4.8-6.5-5-12-9.7-18-15 .6 25.9 4.3 35.4 14.3 59-11.3 7.3-89.9 59.6-95.4 60 1.7-20.7-.6-48 .8-70.9 1.2-11.5 3-32.5 7.1-43.6 7.1-19.3 39.8-33.8 55.6-46.3 7.2-5.6 16.7-10 22.7-16.2v-1c-2.8.3-6 3.5-8.3 5.5l-1.6-.8c-3-5.6-4.4-6.4-3.6-11.8"/>
    <path fill="#4f46e5"
          d="M925.1 1262.3c35.6 31.6 64.1 43 100.4 70 24-15.9 48.8-30.1 72-46.2-.7 5.5.8 6.2 3.7 11.8l1.6.8c2.3-2 5.5-5.2 8.2-5.6v1c-6 6.3-15.4 10.7-22.6 16.3-15.8 12.5-48.5 27-55.6 46.3-4.1 11-5.9 32.1-7 43.6-2.6-9.2-5.4-38-8-51-10.8-11.2-65.2-46.8-81.7-58 0 6.4.5 13.8-.7 19.9-15.7 21.2-58.1-3.5-74.7-12.7.3 15.4.7 25.2 4.2 40.2 27.6 1 44.9 7 64.6 27.2-2 1.3-5.7 3.8-7.7 2.4-23.4-16.5-34.3-19.3-63.7-18.2-11-36.5-10.5-39.4-9.9-77.8 9 7 56.3 44.1 73 32.7 4.8-3.3 3.8-33.4 4-42.7m99.5-489.5c29-18.9 58-36.7 85-58.5 3.5-2.8 7.8-6.1 11.5-8.7 0 13.9 0 29.2 1.2 43 23.8 3.3 38-7.2 56.9-21.6q8.7-6.7 17.4-13.7c2.1 30.2 5 50-7.3 79-29-2.3-39.2 2-62.2 18.1-1.3.9-4.3-.7-5.8-1.4l-17.4-14a129 129 0 0 0 14.6 58.7c-30 21.3-62.5 42-93.6 62-29.4-21.6-61.3-40.1-90.9-61.4 9.7-28 13.2-27.5 13.5-58.8l-17.2 14c-2.3.9-4.1 2.1-6.5.5-20.9-13.7-34.8-20.6-60.5-16.9-13.6-29.3-11.3-47.1-8-79 7.8 6.4 59.8 49.3 73.4 33.3 2.7-3.2 2.1-33.8 2.2-41.6q16 12.9 32.3 25.2c19.9 15 41 27.5 61.4 41.8"/>
    <path fill="#4f46e5"
          d="M1025.6 838c.8-9 5.3-45.2 10.5-50.2 21.3-20.7 50.5-35.8 75-53.8.4 6 .1 16.3 2.3 21.6.7 1.7 3.7 3 5.5 3.6 27.1 7 45.4-6.2 67.4-18.8.2 14.5-.3 26.2-2.3 40.6-24.8-.2-47.8 6.3-62.6 28l-17.4-14a129 129 0 0 0 14.6 58.7c-30 21.3-62.5 42-93.6 62 0-17.2-1.1-62.6.6-77.7m-.8-238.6c17.4-12.3 35.5-23.4 52.9-35.5 12-8.4 24.3-17.9 36.2-26.7 0 8.6-.3 27.9 1.9 35.2 13.4 12.3 56.9-23.1 67.9-31.7 3.4 33.8 4.4 41.8-4.5 74.1-4.6-.8-10.4-1.2-15.1-1.6-8.5 1-12 1.3-21.2 5.3-6.5 2.8-16.6 11.6-23.4 14.2l-4-2.1c-5-4-10.4-8.7-15.6-12.4.5 25 4 33.2 14.8 55.4l-89 59.9c-7.8-5.1-17.9-13-26.2-18.8a4965 4965 0 0 0-62-41c10.8-22.6 14-28.8 13.8-54l-15 11.4c-1 .5-3.5 2.1-4.4 1.6-23-13.4-29.9-21.4-58.7-17.4-10-31.8-8.5-41.1-4.8-73.7 11 8.8 51.7 40.6 66.3 33.2 4-4 2.6-29.8 2.7-37.7 4.6 3.4 9.5 7.3 14 10.8 23.6 18.5 49.3 33.7 73.4 51.5"/>
    <path fill="#4f46e5"
          d="M1105.4 581.7c25.7 11 47.8-4.3 68.8-17.2.6 10.4.3 19-.1 29.4-.9 4-.5 6-2.9 8.4-21.6 4-42.8 7.2-55.7 28.3-5-4-10.4-8.7-15.6-12.4.5 25 4 33.2 14.8 55.4l-89 59.9c.7-24-.8-48.7 0-73.3.8-11 4.8-41.8 11.8-48.7 18-17.6 45.8-33 67-46.8z"/>
    <path fill="#4f46e5"
          d="M1174 593.9c1.4 3.7 1.4 3.5.6 7.3l-1.9 2.2c-8.5.8-43.9 8.9-45.1 18.8 5.8 1.5 21.1-14 36.5-9-8.5 1-12 1.3-21.2 5.3-6.5 2.8-16.6 11.6-23.4 14.2l-4-2.1c13-21 34.1-24.2 55.7-28.3 2.4-2.3 2-4.5 2.9-8.4M928.3 1444c14.8 10.8 29.6 21.7 45 31.7 17.7 11.6 36 21.5 52.5 35 19.8-14.5 37.1-24.3 57.8-37.4q20.6-13.5 40.6-28.1c1 9.4 2.7 21.2 3.2 30.5 28.8 3.3 47.4-13.1 69.7-29.4 1.8 31.7.8 40.6-9.3 69.9-11.8-1-21-1.5-32.5 1.7a98 98 0 0 0-29 14.4c-1 .6-3.5.1-4.6 0q-8.9-7.2-17.3-14.7c.3 23.5 2.7 32.2 11.8 54.3-11.4 6.8-84.9 56-91.4 57.5a1343 1343 0 0 0-88.2-57.6c9.5-22.1 12.6-30.1 12.2-54-5.7 4.3-11.7 9.3-17.3 13.8-9.9 1.6-18.5-10-28.5-13.1a106 106 0 0 0-38-3.2c-9.5-28-11.6-39.2-9.4-69.4 22.2 16.1 41.4 33.4 69.8 29.8z"/>
    <path fill="#4f46e5"
          d="M1025.7 1573.4c1-8.6 4.7-43.6 10-48.3 23.7-20.5 53-38.4 79.2-56.1l1.6 16.1c31.2 8.6 43.3.1 69-15-.5 13.8-1 21-4.2 34.3-20.5.9-33.5 3.5-50.7 16.2-3.4 2.5-8.6 7.4-9 11.6q-8.7-7-17.2-14.6c.3 23.5 2.7 32.2 11.8 54.3-11.4 6.8-84.9 56-91.4 57.5 1.1-17.5 0-38 .9-56m-1.3-1139.9c14.5-9.5 47.4-30.3 58.3-43 3.1-3.5 9.1-27.6 10.8-34q6.4 14 11.5 29c1.8 5.7 4 16.3 5.8 22.5l2.3 1.5c15.8 1.6 46.5-21.9 59.3-31.1.8 8.4 2.3 15.8 2.6 24.5 2.9 15.7-1.2 32-6 46.8-28.2-2.9-33.2 1.9-54.7 17.6-.6.5-4.3-1.7-5-2.2l-13.8-9.5c-.4 21.8 4.3 31.6 14 50.8-8.5 5.1-83.6 54.1-84.6 54.2-23.4-18.2-56.8-38.7-82.1-54.9 10.4-20.8 13.7-27.4 13.8-50.3q-7 5.1-13.7 10.5c-1.5.8-3.2 2-4.5 1.2-9.1-5.5-16.6-12.4-27-15.5-11.2-3.4-16.9-2.6-27.6-1.1-10.4-25.1-9.4-45.5-4.4-72l1.7 1.4c10.7 9.2 42.3 31 56.7 30l2.4-1.3 4.9-17.7c3.3-11.9 8.1-23 13-34 5.8 21.6 7.1 37.7 28.4 49.3 12.3 6.8 27.3 18 37.9 27.3"/>
    <path fill="#4f46e5"
          d="M954.7 400c20 14.8 40.3 28.2 60.3 43.1 7.3 14.5 6.5 38.9 9.8 44.1.7 17.4 1 56.5 0 73.4-23.3-18.2-56.7-38.7-82-54.9 10.4-20.8 13.7-27.4 13.8-50.3q-7 5.1-13.7 10.5c-12.1-13.4-33.2-27.2-51.8-28.2l-2.5-.1a262 262 0 0 1-.7-36.2c7.4 4.4 15.3 9.3 22.5 13.3 10.6 5.9 33.2 14.9 40.9 1 1.8-3.3 2.6-11.8 3.4-15.8"/>
    <path fill="#4f46e5"
          d="M1024.4 433.5c14.5-9.5 47.4-30.3 58.3-43 3.1-3.5 9.1-27.6 10.8-34q6.4 14 11.5 29c1.8 5.7 4 16.3 5.8 22.5l2.3 1.5c15.8 1.6 46.5-21.9 59.3-31.1.8 8.4 2.3 15.8 2.6 24.5 2.9 15.7-1.2 32-6 46.8-28.2-2.9-33.2 1.9-54.7 17.6-.6.5-4.3-1.7-5-2.2 18.9-19.3 26.8-26 54.5-27.8l1.3-19.8q-.1-8.6-.5-17c-12.2 6.7-51.7 34.5-64.7 14.6-1-1.5-3.3-12.4-3.8-15-17.7 12.7-40.5 27.3-56.8 41.7-10.2 9-13 31.9-14.5 45.4-3.3-5.2-2.5-29.6-9.8-44-20-15-40.4-28.4-60.3-43.3-.8 4-1.6 12.5-3.4 15.7-7.7 14-30.3 5-41-1-7.1-4-15-8.8-22.4-13.2a262 262 0 0 0 .7 36.2h2.5c18.6 1 39.7 15 51.8 28.3-1.5.8-3.2 2-4.5 1.2-9.1-5.5-16.6-12.4-27-15.5-11.2-3.4-16.9-2.6-27.6-1.1-10.4-25.1-9.4-45.5-4.4-72l1.7 1.4c10.7 9.2 42.3 31 56.7 30l2.4-1.3 4.9-17.7c3.3-11.9 8.1-23 13-34 5.8 21.6 7.1 37.7 28.4 49.3 12.3 6.8 27.3 18 37.9 27.3"/>
    <path fill="#4f46e5"
          d="M1175 402.9c2.9 15.7-1.2 32-6 46.8-28.2-2.9-33.2 1.9-54.7 17.6-.6.5-4.3-1.7-5-2.2 18.9-19.3 26.8-26 54.5-27.8l1.3-19.8c5.7 25.6-4 19.9-21.3 24.8q-6.4 1.8-12 5.4c-3 1.8-10.4 7-11.2 10.4 1.8 0 4.5-.4 5.4-1.8 2.3-3.5 9.3-4.3 11.7-6.2 6.3-5 23.6-1.4 29.5-4 5.7-8.1 7-32.7 7.8-43.2m-149 1264q26.7-17.5 52.6-35.7c8.4-5.9 25-18 34-22.4.6 13.5 2.6 31.5 4.7 45a368 368 0 0 0-73 72 389 389 0 0 1-17.5 27c-.7-.2-16.4-25.2-19-29a413 413 0 0 0-72-71.8 429 429 0 0 0 4.3-43 1168 1168 0 0 1 86 57.9"/>
    <path fill="#4f46e5"
          d="M1026.9 1705.8c2.6-33.6 20.2-42.5 46.3-59.2 9.3-5.9 18.7-12.8 28.2-18.3l4 19.5c-14.2 13.1-62.5 61.9-61 78a389 389 0 0 1-17.6 27c-.6-14.6 0-32.2 0-47"/>
    <path fill="#4f46e5"
          d="m948.8 1647.2 2.7-19q25 17.9 50.7 35c19.8 13.5 20.6 35.7 23 57.8q.6-7.7 1.7-15.2c-.1 14.8-.7 32.4-.1 47-.7-.2-16.4-25.2-19-29 0-17.8-45.8-63.5-59-76.6"/>
</svg>
